<svg xmlns="http://www.w3.org/2000/svg" viewBox="0 0 1200 800" role="img" aria-label="Valle del Elqui">
  <defs>
    <linearGradient id="g" x1="0" x2="1" y1="0" y2="1">
      <stop offset="0%" stop-color="#f8efd8"/>
      <stop offset="100%" stop-color="#cfe7c3"/>
    </linearGradient>
    <filter id="shadow" x="-20%" y="-20%" width="140%" height="140%">
      <feDropShadow dx="0" dy="18" stdDeviation="22" flood-color="#6b705c" flood-opacity=".20"/>
    </filter>
  </defs>
  <rect width="1200" height="800" rx="48" fill="url(#g)"/>
  <circle cx="986" cy="148" r="94" fill="#ffe7a6" opacity=".85"/>
  <path d="M0 611 C160 536 281 575 432 507 C579 441 701 386 889 456 C1011 501 1106 483 1200 428 L1200 800 L0 800 Z" fill="#8fb889" opacity=".62"/>
  <path d="M0 682 C190 598 328 657 483 590 C649 518 774 538 921 589 C1035 629 1128 608 1200 563 L1200 800 L0 800 Z" fill="#547c5a" opacity=".72"/>
  <g filter="url(#shadow)">
    <rect x="88" y="92" width="580" height="278" rx="34" fill="#fffaf0" opacity=".92"/>
    <text x="132" y="178" font-family="Inter, Arial, sans-serif" font-size="54" font-weight="800" fill="#314d36">Valle del Elqui</text>
    <text x="132" y="240" font-family="Inter, Arial, sans-serif" font-size="28" fill="#64735a">Bienestar, cielos y descanso</text>
    <rect x="132" y="287" width="246" height="50" rx="25" fill="#fff0b8"/>
    <text x="158" y="321" font-family="Inter, Arial, sans-serif" font-size="22" font-weight="700" fill="#6b5d22">Imagen referencial</text>
  </g>
</svg>