<svg xmlns="http://www.w3.org/2000/svg" width="1200" height="820" viewBox="0 0 1200 820" role="img" aria-labelledby="title desc">
  <title id="title">Experiencia 3</title>
  <desc id="desc">Imagen referencial editable para Experiencia 3</desc>
  <defs>
    <linearGradient id="g" x1="0" y1="0" x2="1" y2="1">
      <stop offset="0" stop-color="#fff8e7"/>
      <stop offset="0.52" stop-color="#dbead2"/>
      <stop offset="1" stop-color="#f5d87a"/>
    </linearGradient>
    <filter id="shadow" x="-20%" y="-20%" width="140%" height="140%">
      <feDropShadow dx="0" dy="18" stdDeviation="24" flood-color="#31523c" flood-opacity="0.16"/>
    </filter>
  </defs>
  <rect width="1200" height="820" fill="url(#g)"/>
  <circle cx="960" cy="130" r="170" fill="#fffdf6" opacity="0.38"/>
  <circle cx="160" cy="160" r="120" fill="#fffdf6" opacity="0.28"/>
  <path d="M0 620 C160 540 280 590 430 520 C590 445 720 530 860 455 C1005 378 1100 418 1200 350 L1200 820 L0 820 Z" fill="#4f6f52" opacity="0.28"/>
  <path d="M0 690 C180 610 320 660 500 600 C700 530 820 640 1020 545 C1110 505 1160 515 1200 492 L1200 820 L0 820 Z" fill="#31523c" opacity="0.48"/>
  <g filter="url(#shadow)">
    <rect x="110" y="110" width="980" height="420" rx="42" fill="#fffdf6" opacity="0.78"/>
    <text x="160" y="270" fill="#31523c" font-size="64" font-family="Arial, Helvetica, sans-serif" font-weight="800">Experiencia 3</text>
    <text x="160" y="342" fill="#667264" font-size="32" font-family="Arial, Helvetica, sans-serif">Reemplazar por foto real de viajeros</text>
    <rect x="160" y="390" width="250" height="54" rx="27" fill="#fff1ad" opacity="0.95"/>
    <text x="190" y="425" fill="#31523c" font-size="22" font-family="Arial, Helvetica, sans-serif" font-weight="700">Imagen referencial</text>
  </g>
</svg>